<?xml version="1.0" encoding="utf-8"?><!DOCTYPE svg PUBLIC "-//W3C//DTD SVG 1.1//EN" "http://www.w3.org/Graphics/SVG/1.1/DTD/svg11.dtd"><svg xmlns="http://www.w3.org/2000/svg" xmlns:xlink="http://www.w3.org/1999/xlink"><symbol fill-rule="evenodd" clip-rule="evenodd" viewBox="0 0 24 24" id="basket" xmlns="http://www.w3.org/2000/svg"><path d="M13.5 21a.5.5 0 110-1 .5.5 0 010 1m0-2a1.5 1.5 0 10.001 3.001A1.5 1.5 0 0013.5 19m-6 2a.5.5 0 110-1 .5.5 0 010 1m0-2a1.5 1.5 0 10.001 3.001A1.5 1.5 0 007.5 19M24 3h-2.964l-3.642 15H4.073L0 4.997h19.522L20.25 2H24v1zM1.419 5.997L4.812 17h11.794L19.28 5.997H1.419z"/></symbol><symbol fill-rule="evenodd" clip-rule="evenodd" viewBox="0 0 24 24" id="close" xmlns="http://www.w3.org/2000/svg"><path d="M12 11.293L22.293 1l.707.707L12.707 12 23 22.293l-.707.707L12 12.707 1.707 23 1 22.293 11.293 12 1 1.707 1.707 1 12 11.293z"/></symbol><symbol fill-rule="evenodd" clip-rule="evenodd" viewBox="0 0 24 24" id="discord" xmlns="http://www.w3.org/2000/svg"><path d="M12 0C5.373 0 0 5.373 0 12s5.373 12 12 12 12-5.373 12-12S18.627 0 12 0zm0 2c5.514 0 10 4.486 10 10s-4.486 10-10 10S2 17.514 2 12 6.486 2 12 2zm2.784 15.584H7.98c-.678 0-1.23-.552-1.23-1.236V8.236C6.75 7.552 7.302 7 7.98 7h8.04c.678 0 1.23.552 1.23 1.236V19l-1.29-1.14-.726-.672-.768-.714.318 1.11zm-1.08-2.748c1.326-.042 1.836-.912 1.836-.912 0-1.932-.864-3.498-.864-3.498-.864-.648-1.686-.63-1.686-.63l-.084.096c1.02.312 1.494.762 1.494.762a4.891 4.891 0 00-3.018-.564l-.102.012c-.21.018-.72.096-1.362.378l-.354.174s.498-.474 1.578-.786l-.06-.072s-.822-.018-1.686.63c0 0-.864 1.566-.864 3.498 0 0 .504.87 1.83.912l.402-.498c-.762-.228-1.05-.708-1.05-.708l.168.102.024.018.024.013.006.004.024.013c.15.084.3.15.438.204.246.096.54.192.882.258a4.203 4.203 0 002.424-.252c.21-.078.444-.192.69-.354 0 0-.3.492-1.086.714l.396.486zm-2.79-2.802c-.342 0-.612.3-.612.666 0 .366.276.666.612.666.342 0 .612-.3.612-.666.006-.366-.27-.666-.612-.666zm2.19 0c-.342 0-.612.3-.612.666 0 .366.276.666.612.666.342 0 .612-.3.612-.666 0-.366-.27-.666-.612-.666z"/></symbol><symbol fill-rule="evenodd" clip-rule="evenodd" viewBox="0 0 24 24" id="gmail" xmlns="http://www.w3.org/2000/svg"><path d="M12 0C5.373 0 0 5.373 0 12s5.373 12 12 12 12-5.373 12-12S18.627 0 12 0zm0 2c5.514 0 10 4.486 10 10s-4.486 10-10 10S2 17.514 2 12 6.486 2 12 2zm5.144 14.5H6.856A.857.857 0 016 15.644V8.856C6 8.384 6.384 8 6.856 8h10.288c.472 0 .856.384.856.856v6.788a.857.857 0 01-.856.856zM12 13.457l-4.671-3.241L7.319 16h9.342v-5.784L12 13.457zM16.435 8.5H7.54L12 11.615s3.126-2.203 4.435-3.115z"/></symbol><symbol viewBox="0 0 24 24" id="location" xmlns="http://www.w3.org/2000/svg"><path d="M12 0C8.852 0 6 2.553 6 5.702 6 8.85 8.602 12.609 12 18c3.398-5.391 6-9.15 6-12.298C18 2.553 15.149 0 12 0zm0 8a2 2 0 11-.001-3.999A2 2 0 0112 8zm10.881-2.501c0-1.492-.739-2.83-1.902-3.748l.741-.752C23.115 2.1 24 3.705 24 5.499s-.885 3.4-2.28 4.501l-.741-.753c1.163-.917 1.902-2.256 1.902-3.748zM19.5 7.748l.74.751c.931-.733 1.521-1.804 1.521-3 0-1.195-.59-2.267-1.521-3l-.74.751c.697.551 1.141 1.354 1.141 2.249s-.444 1.699-1.141 2.249zM3.021 9.247L2.28 10C.885 8.899 0 7.293 0 5.499S.885 2.1 2.28.999l.741.752c-1.163.918-1.902 2.256-1.902 3.748s.739 2.831 1.902 3.748zm.338-3.748c0-.896.443-1.698 1.141-2.249l-.74-.751c-.931.733-1.521 1.805-1.521 3 0 1.196.59 2.267 1.521 3l.74-.751c-.697-.55-1.141-1.353-1.141-2.249zM20 20c0 2.209-3.581 4-8 4s-8-1.791-8-4c0-1.602 1.888-2.98 4.608-3.619l1.154 1.824c-.401.068-.806.135-1.178.242-3.312.949-3.453 2.109-.021 3.102 2.088.603 4.777.605 6.874-.001 3.619-1.047 3.164-2.275-.268-3.167-.296-.077-.621-.118-.936-.171l1.156-1.828C18.112 17.02 20 18.398 20 20z"/></symbol><symbol fill-rule="evenodd" clip-rule="evenodd" viewBox="0 0 24 24" id="menu" xmlns="http://www.w3.org/2000/svg"><path d="M24 18v1H0v-1h24zm0-6v1H0v-1h24zm0-6v1H0V6h24z" fill="#1040e2"/><path d="M24 19H0v-1h24v1zm0-6H0v-1h24v1zm0-6H0V6h24v1z"/></symbol><symbol viewBox="0 0 24 24" id="personal" xmlns="http://www.w3.org/2000/svg"><path d="M17.997 18h-.998c0-1.552.06-1.775-.88-1.993-1.438-.332-2.797-.645-3.293-1.729-.18-.396-.301-1.048.155-1.907 1.021-1.929 1.277-3.583.702-4.538-.672-1.115-2.707-1.12-3.385.017-.576.968-.316 2.613.713 4.512.465.856.348 1.51.168 1.908-.49 1.089-1.836 1.4-3.262 1.728-.982.227-.92.435-.92 2.002h-.995L6 17.377c0-1.259.1-1.985 1.588-2.329 1.682-.389 3.344-.736 2.545-2.209C7.767 8.474 9.457 6 11.998 6c2.492 0 4.227 2.383 1.867 6.839-.775 1.464.824 1.812 2.545 2.209 1.49.344 1.589 1.072 1.589 2.333l-.002.619zm4.81-2.214c-1.289-.298-2.489-.559-1.908-1.657 1.77-3.342.47-5.129-1.4-5.129-1.265 0-2.248.817-2.248 2.325 0 1.269.574 2.175.904 2.925h1.048c-.17-.75-1.466-2.562-.766-3.736.412-.692 1.704-.693 2.114-.012.38.631.181 1.812-.534 3.161-.388.733-.28 1.301-.121 1.648.305.666.977.987 1.737 1.208 1.507.441 1.368.042 1.368 1.48h.997l.002-.463c0-.945-.074-1.492-1.193-1.75zM.002 18h.997c0-1.438-.139-1.039 1.368-1.48.761-.221 1.433-.542 1.737-1.208.159-.348.267-.915-.121-1.648-.715-1.349-.914-2.53-.534-3.161.41-.682 1.702-.681 2.114.012.7 1.175-.596 2.986-.766 3.736h1.048c.33-.75.904-1.656.904-2.925C6.75 9.817 5.767 9 4.502 9c-1.87 0-3.17 1.787-1.4 5.129.581 1.099-.619 1.359-1.908 1.657C.074 16.044 0 16.591 0 17.537L.002 18z"/></symbol><symbol fill-rule="evenodd" clip-rule="evenodd" viewBox="0 0 24 24" id="phone" xmlns="http://www.w3.org/2000/svg"><path d="M8.26 1.289l-1.564.772c-5.793 3.02 2.798 20.944 9.31 20.944.46 0 .904-.094 1.317-.284l1.542-.755-2.898-5.594-1.54.754a1.375 1.375 0 01-.597.134c-2.561 0-6.841-8.204-4.241-9.596l1.546-.763L8.26 1.289zM16.006 24C10.326 24 3.785 12.886 3.785 6.168c0-2.419.833-4.146 2.457-4.992L8.624 0l3.857 7.347-2.437 1.201c-1.439.772 2.409 8.424 3.956 7.68l2.399-1.179 3.816 7.36s-2.36 1.162-2.476 1.215a4.12 4.12 0 01-1.733.376"/></symbol><symbol clip-rule="evenodd" fill-rule="evenodd" stroke-linejoin="round" stroke-miterlimit="2" viewBox="0 0 24 24" id="plus" xmlns="http://www.w3.org/2000/svg"><path d="M11 11H3.75a.75.75 0 000 1.5H11v7.25a.75.75 0 001.5 0V12.5h7.25a.75.75 0 000-1.5H12.5V3.75a.75.75 0 00-1.5 0z" fill-rule="nonzero"/></symbol><symbol fill-rule="evenodd" clip-rule="evenodd" viewBox="0 0 24 24" id="price" xmlns="http://www.w3.org/2000/svg"><path d="M2 9.453V0h9.352L22 10.625l-3.794 3.794 1.849 4.733L7.715 24 2 9.453zm1.761 1.748L8.28 22.704l10.48-4.118-1.326-3.395L12.625 20l-8.864-8.799zM3 1v8.036l9.622 9.552 7.963-7.962L10.938 1H3zm12.25 8.293c-.415-.415-.865-.617-1.378-.617-.578 0-1.227.241-2.171.803-.682.411-1.118.585-1.456.585-.361 0-1.083-.409-.961-1.219.052-.345.25-.696.572-1.019.652-.652 1.544-.848 2.276-.107l.744-.744c-.476-.475-1.096-.792-1.761-.792-.566 0-1.125.228-1.663.677l-.626-.626-.698.699.653.652c-.569.826-.842 2.021.076 2.937 1.011 1.011 2.188.541 3.413-.232.6-.379 1.083-.563 1.475-.563.589.001 1.18.498 1.078 1.258-.052.386-.26.764-.621 1.122-.451.451-.904.679-1.347.679-.418 0-.747-.192-1.049-.462l-.739.739c.463.458 1.082.753 1.735.753.544 0 1.087-.201 1.612-.597l.54.538.697-.697-.52-.521c.743-.896 1.157-2.209.119-3.247zM6 2.001a2 2 0 11-.001 4.001A2 2 0 016 2.001zm0 1a1 1 0 110 2 1 1 0 010-2z"/></symbol><symbol fill-rule="evenodd" clip-rule="evenodd" viewBox="0 0 24 24" id="search" xmlns="http://www.w3.org/2000/svg"><path d="M15.853 16.56A9.458 9.458 0 019.5 19C4.257 19 0 14.743 0 9.5S4.257 0 9.5 0 19 4.257 19 9.5c0 2.442-.923 4.67-2.44 6.353l7.44 7.44-.707.707-7.44-7.44zM9.5 1C14.191 1 18 4.809 18 9.5S14.191 18 9.5 18 1 14.191 1 9.5 4.809 1 9.5 1z"/></symbol><symbol viewBox="0 0 24 24" id="strong" xmlns="http://www.w3.org/2000/svg"><path d="M21 11H0v12h21V11zm1 9h.75c.69 0 1.25-.56 1.25-1.25v-3.5c0-.69-.56-1.25-1.25-1.25H22v6zM17.185 5.042c.026.981-.524 1.7-1.169 1.982-1.956-.591.85-4.422-4.485-5.749 1.07 1.327.847 3.485-.875 4.213C8.824 4.654 10.993 1.55 5.54 1c2.547 2.315-1.482 3.768.052 5.847-.845-.139-1.53-1.177-1.148-2.295C3.428 5.16 3 6.089 3 6.974c0 .804.354 1.571.94 2.026h3.824c-.78-.909 1.38-1.663-.009-2.681 2.998.245 1.807 1.622 2.813 1.992.946-.323 1.34-1.145.76-1.954 2.03.382 2.239 1.998 1.674 2.643h3.971C17.686 8.468 18 7.755 18 7.03c0-.703-.297-1.418-.815-1.988z"/></symbol><symbol fill-rule="evenodd" clip-rule="evenodd" stroke-linejoin="round" stroke-miterlimit="1.414" viewBox="0 0 24 24" id="telegram" xmlns="http://www.w3.org/2000/svg"><path d="M12 0C5.373 0 0 5.373 0 12s5.373 12 12 12 12-5.373 12-12S18.627 0 12 0zm0 2c5.514 0 10 4.486 10 10s-4.486 10-10 10S2 17.514 2 12 6.486 2 12 2zm2.692 14.889a.59.59 0 00.553.073.576.576 0 00.362-.42c.435-2.042 1.489-7.211 1.884-9.068a.39.39 0 00-.129-.379.404.404 0 00-.399-.07c-2.096.776-8.553 3.198-11.192 4.175a.412.412 0 00.025.781c1.184.354 2.738.847 2.738.847s.725 2.193 1.104 3.308a.431.431 0 00.707.184l1.548-1.461s1.786 1.309 2.799 2.03zm-5.505-4.338l.84 2.769.186-1.754 5.092-4.593a.137.137 0 00.017-.188.143.143 0 00-.188-.032l-5.947 3.798z"/></symbol><symbol viewBox="0 0 24 24" id="tick" xmlns="http://www.w3.org/2000/svg"><path d="M12 2c5.514 0 10 4.486 10 10s-4.486 10-10 10S2 17.514 2 12 6.486 2 12 2zm0-2C5.373 0 0 5.373 0 12s5.373 12 12 12 12-5.373 12-12S18.627 0 12 0zm-1.959 17l-4.5-4.319 1.395-1.435 3.08 2.937L17.037 7l1.422 1.409L10.041 17z"/></symbol></svg>